<svg width="21" height="22" fill="none" xmlns="http://www.w3.org/2000/svg"><circle cx="10.5" cy="11" r="10.5" fill="#fff"/><path d="M7.4 15.5a.35.35 0 0 1-.24-.08.35.35 0 0 1-.08-.24v-.45c0-.08.02-.18.07-.28.04-.1.14-.21.28-.34l2.97-2.96c.46-.4.84-.74 1.12-1.03.28-.3.47-.57.58-.82.12-.26.19-.53.19-.81 0-.54-.15-.96-.45-1.26-.3-.32-.74-.48-1.33-.48-.57 0-1.02.17-1.33.5-.31.34-.5.76-.58 1.26-.02.13-.07.2-.15.26a.4.4 0 0 1-.21.07h-.73c-.2 0-.3-.1-.3-.27.03-.48.16-.95.4-1.41.24-.47.6-.85 1.08-1.15.48-.31 1.09-.46 1.82-.46s1.34.13 1.8.4c.48.26.83.61 1.05 1.05a3.12 3.12 0 0 1-.14 3.08c-.3.48-.75.97-1.33 1.47l-2.68 2.73h4.36c.23 0 .34.1.34.32v.58c0 .21-.11.32-.34.32H7.4Z" fill="#000"/></svg>